<?xml version="1.0" encoding="utf-8"?>
<svg xml:space="preserve" viewBox="0 0 100 100" y="0" x="0" xmlns="http://www.w3.org/2000/svg" version="1.1"
     style="background: none; shape-rendering: auto;">
      <path fill="currentColor" d="M89.542 22.024c-3.936-3.935-10.342-3.936-14.28 0l-34.53 34.529L24.739 40.56c-3.938-3.936-10.342-3.936-14.28 0A10.03 10.03 0 0 0 7.5 47.701c0 2.698 1.05 5.234 2.958 7.141l23.133 23.133a10.036 10.036 0 0 0 7.141 2.957 10.04 10.04 0 0 0 7.14-2.956l41.67-41.67c1.908-1.907 2.958-4.443 2.958-7.141s-1.05-5.234-2.958-7.141z"></path>
</svg>